<?xml version="1.0" encoding="utf-8"?>
<svg xmlns="http://www.w3.org/2000/svg" viewBox="100 22.146 875.7207 137.6" width="875.721px" height="137.6px">
  <defs>
    <style>
      .logo {
        height: 100px;
        width: auto;
        margin-right: 30px; /* Space between logos */
        opacity: 0.8;
        transition: opacity 0.2s ease;
      }
      .logo:hover {
        opacity: 1.0;
      }
      .container {
        display: flex;
        align-items: center; /* Vertical centering */
        justify-content: flex-start; /* Align to the left */
        padding: 20px;
        background-color: #f5f5f5; /* Light gray background */
        border-radius: 8px;
        height: 100%;
      }
      .title-text {
        font-family: sans-serif; /* Use a standard sans-serif font */
        font-size: 36px;
        font-weight: bold;
        fill: #222; /* Darker text color */
        margin-left: 30px; /* Space between logos and text*/
      }
      .subtitle-text {
        font-family: sans-serif;
        font-size: 18px;
        fill: #555;
        margin-left: 30px;

      }
    </style>
  </defs>
  <g transform="matrix(0.9999999999999999, 0, 0, 0.9999999999999999, -3.552713678800501e-15, 0)">
    <text class="title-text" style="fill: rgb(255, 255, 255); font-family: &quot;Kristen ITC&quot;; paint-order: stroke; white-space: pre;" x="488.307" y="90.842">Spring AI Embeddings POC</text>
    <text class="subtitle-text" style="fill: rgb(255, 255, 255); font-family: &quot;Kristen ITC&quot;; paint-order: stroke; white-space: pre;" x="488.307" y="130.842">with Chroma and Ollama</text>
  </g>
  <g transform="matrix(0.9999999999999999, 0, 0, 0.9999999999999999, -3.552713678800501e-15, 0)">
    <g transform="matrix(1, 0, 0, 1, 8.696037, -3.753134)">
      <path d="M 105.671 55.132 C 104.858 55.262 103.881 55.692 103.191 56.202 C 101.106 57.792 99.491 61.162 98.807 65.352 C 98.55 66.932 98.376 69.132 98.376 70.812 C 98.376 72.792 98.607 75.322 98.939 77.062 C 99.015 77.452 99.052 77.802 99.021 77.822 C 98.996 77.852 98.689 78.102 98.344 78.372 C 97.166 79.302 95.82 80.762 94.893 82.092 C 93.115 84.602 91.961 87.472 91.479 90.582 C 91.292 91.812 91.242 94.282 91.392 95.522 C 91.724 98.352 92.576 100.742 94.035 102.932 L 94.511 103.642 L 94.373 103.882 C 93.396 105.512 92.563 107.882 92.175 110.172 C 91.868 111.972 91.83 112.452 91.83 114.862 C 91.83 117.302 91.862 117.782 92.15 119.472 C 92.495 121.492 93.196 123.632 93.979 125.042 C 94.235 125.512 94.862 126.482 94.937 126.522 C 94.962 126.542 94.887 126.772 94.768 127.042 C 93.866 129.012 93.096 131.642 92.777 133.852 C 92.551 135.362 92.519 135.852 92.519 137.442 C 92.519 139.482 92.632 140.472 93.058 142.102 L 93.121 142.332 L 95.802 142.332 L 98.488 142.332 L 98.313 141.992 C 97.229 140.002 97.129 136.272 98.062 132.552 C 98.488 130.842 98.97 129.592 99.873 127.852 L 100.41 126.802 L 100.41 126.152 C 100.41 125.562 100.398 125.492 100.204 125.092 C 100.054 124.792 99.854 124.532 99.496 124.182 C 98.889 123.592 98.45 122.972 98.099 122.202 C 96.559 118.872 96.258 113.902 97.342 109.662 C 97.794 107.902 98.539 106.332 99.321 105.472 C 99.854 104.882 100.129 104.222 100.129 103.542 C 100.129 102.842 99.879 102.262 99.315 101.642 C 97.699 99.922 96.703 97.812 96.346 95.362 C 95.839 91.872 96.759 88.072 98.851 85.062 C 100.899 82.102 103.774 80.212 106.988 79.692 C 107.707 79.572 109.054 79.592 109.806 79.742 C 110.626 79.882 111.14 79.832 111.665 79.582 C 112.316 79.282 112.643 78.902 113.025 78.022 C 113.362 77.242 113.625 76.812 114.333 75.922 C 115.185 74.872 116.005 74.152 117.321 73.282 C 118.824 72.292 120.534 71.582 122.237 71.242 C 122.857 71.102 123.146 71.092 124.304 71.092 C 125.463 71.092 125.75 71.102 126.371 71.242 C 128.87 71.752 131.351 73.042 133.33 74.862 C 133.754 75.262 134.776 76.522 135.102 77.042 C 135.226 77.252 135.446 77.692 135.583 78.022 C 135.966 78.902 136.291 79.282 136.942 79.582 C 137.45 79.832 137.983 79.882 138.771 79.752 C 140.018 79.542 140.976 79.552 142.198 79.802 C 146.356 80.642 149.977 84.072 151.58 88.662 C 152.976 92.692 152.582 96.902 150.502 100.122 C 150.151 100.672 149.801 101.102 149.293 101.642 C 148.198 102.812 148.198 104.262 149.288 105.472 C 151.079 107.432 152.2 112.252 151.862 116.512 C 151.636 119.312 150.915 121.822 149.925 123.252 C 149.751 123.502 149.388 123.912 149.112 124.182 C 148.755 124.532 148.555 124.792 148.405 125.092 C 148.209 125.492 148.198 125.562 148.198 126.152 L 148.198 126.802 L 148.736 127.852 C 149.638 129.592 150.121 130.842 150.546 132.552 C 151.467 136.232 151.385 139.882 150.333 141.942 C 150.246 142.122 150.17 142.282 150.17 142.302 C 150.17 142.322 151.366 142.332 152.833 142.332 L 155.488 142.332 L 155.557 142.062 C 155.594 141.922 155.656 141.692 155.688 141.582 C 155.757 141.302 155.894 140.482 156.007 139.712 C 156.115 138.912 156.115 136.012 156.007 135.132 C 155.607 131.952 154.937 129.432 153.841 127.042 C 153.721 126.772 153.647 126.542 153.671 126.522 C 153.703 126.512 153.878 126.262 154.065 125.972 C 155.431 123.912 156.27 121.312 156.696 117.872 C 156.808 116.922 156.808 112.862 156.696 111.962 C 156.395 109.622 156.033 108.022 155.431 106.412 C 155.181 105.752 154.517 104.332 154.234 103.882 L 154.097 103.642 L 154.573 102.932 C 156.033 100.742 156.884 98.352 157.216 95.522 C 157.366 94.282 157.316 91.812 157.128 90.582 C 156.64 87.472 155.494 84.612 153.715 82.092 C 152.789 80.762 151.442 79.302 150.264 78.372 C 149.92 78.102 149.613 77.852 149.587 77.822 C 149.557 77.802 149.594 77.452 149.669 77.062 C 150.427 73.112 150.402 68.182 149.607 64.332 C 148.917 60.982 147.665 58.302 146.05 56.772 C 144.758 55.542 143.444 55.012 141.865 55.122 C 138.245 55.332 135.327 59.492 134.175 66.062 C 133.987 67.122 133.824 68.352 133.824 68.692 C 133.824 68.822 133.799 68.932 133.767 68.932 C 133.735 68.932 133.491 68.802 133.229 68.652 C 130.436 67.002 127.329 66.112 124.304 66.112 C 121.28 66.112 118.173 67.002 115.378 68.652 C 115.116 68.802 114.872 68.932 114.841 68.932 C 114.81 68.932 114.784 68.822 114.784 68.692 C 114.784 68.342 114.615 67.062 114.435 66.062 C 113.388 60.162 110.989 56.262 107.801 55.272 C 107.363 55.142 106.117 55.062 105.671 55.132 Z M 106.737 60.222 C 107.638 60.942 108.64 62.982 109.216 65.262 C 109.324 65.692 109.436 66.162 109.467 66.342 C 109.492 66.492 109.562 66.882 109.617 67.182 C 109.862 68.512 109.975 69.942 109.987 71.682 L 109.994 73.412 L 109.562 74.052 L 109.129 74.682 L 108.12 74.682 C 106.943 74.682 105.771 74.842 104.651 75.142 C 104.25 75.252 103.861 75.342 103.787 75.362 C 103.668 75.402 103.649 75.352 103.58 74.842 C 103.21 72.042 103.229 68.962 103.637 66.392 C 104.087 63.532 105.14 60.942 106.166 60.172 C 106.411 59.992 106.455 60.002 106.737 60.222 Z M 142.447 60.182 C 143.068 60.642 143.751 61.852 144.258 63.412 C 145.279 66.512 145.568 70.782 145.028 74.842 C 144.96 75.352 144.941 75.402 144.822 75.362 C 144.747 75.342 144.358 75.252 143.957 75.142 C 142.836 74.842 141.665 74.682 140.487 74.682 L 139.479 74.682 L 139.047 74.052 L 138.615 73.412 L 138.621 71.682 C 138.634 69.262 138.86 67.352 139.398 65.242 C 139.968 62.982 140.976 60.942 141.872 60.222 C 142.154 60.002 142.198 59.992 142.447 60.182 Z" style="paint-order: stroke; fill: rgb(255, 255, 255);"/>
      <path d="M 123.333 91.702 C 121.974 91.842 121.605 91.892 120.953 92.012 C 119.895 92.232 118.481 92.722 117.496 93.212 C 114.078 94.872 111.722 97.662 111.002 100.892 C 110.857 101.532 110.838 101.742 110.838 102.822 C 110.838 103.892 110.857 104.112 110.995 104.722 C 111.953 108.932 115.836 112.052 120.86 112.632 C 121.95 112.742 126.659 112.742 127.748 112.632 C 131.782 112.172 135.252 109.982 136.811 106.912 C 137.225 106.092 137.425 105.562 137.613 104.722 C 137.751 104.112 137.77 103.892 137.77 102.822 C 137.77 101.742 137.751 101.532 137.607 100.892 C 136.561 96.202 132.014 92.512 126.44 91.822 C 125.713 91.732 123.809 91.652 123.333 91.702 Z M 125.675 95.112 C 127.536 95.312 129.408 95.972 130.912 96.982 C 131.719 97.512 132.859 98.632 133.348 99.382 C 133.949 100.292 134.293 101.232 134.451 102.362 C 134.519 102.882 134.481 103.272 134.293 104.112 C 133.999 105.362 133.085 106.682 131.851 107.592 C 131.275 108.012 130.078 108.622 129.346 108.862 C 127.956 109.302 127.048 109.392 123.803 109.362 C 121.687 109.342 121.31 109.322 120.704 109.202 C 118.631 108.822 116.989 107.992 115.799 106.732 C 114.834 105.712 114.396 104.792 114.158 103.302 C 114.052 102.602 114.251 101.442 114.659 100.472 C 115.154 99.292 116.432 97.832 117.697 96.982 C 119.162 95.992 121.092 95.312 122.864 95.122 C 123.546 95.042 124.994 95.042 125.675 95.112 Z" style="paint-order: stroke; fill: rgb(255, 255, 255);"/>
      <path d="M 121.913 99.682 C 121.436 99.942 121.103 100.592 121.205 101.072 C 121.318 101.602 121.774 102.122 122.487 102.562 C 122.87 102.782 122.895 102.812 122.914 103.042 C 122.926 103.182 122.876 103.582 122.808 103.922 C 122.733 104.262 122.676 104.642 122.676 104.742 C 122.682 105.012 122.932 105.442 123.195 105.662 C 123.428 105.842 123.471 105.852 124.124 105.872 C 124.718 105.892 124.843 105.882 125.081 105.762 C 125.694 105.472 125.852 104.912 125.626 103.852 C 125.438 102.972 125.476 102.842 125.945 102.562 C 126.44 102.272 126.966 101.772 127.123 101.422 C 127.424 100.762 127.147 100.022 126.484 99.672 C 126.321 99.592 126.12 99.552 125.826 99.552 C 125.369 99.552 125.074 99.662 124.536 100.022 L 124.229 100.212 L 124.034 100.092 C 123.239 99.622 123.095 99.552 122.613 99.562 C 122.269 99.562 122.081 99.592 121.913 99.682 Z" style="paint-order: stroke; fill: rgb(255, 255, 255);"/>
      <path d="M 106.705 92.422 C 105.597 92.762 104.771 93.582 104.344 94.732 C 104.138 95.292 104.037 96.162 104.125 96.632 C 104.331 97.752 105.252 98.772 106.298 99.052 C 107.613 99.392 108.597 99.162 109.467 98.312 C 109.975 97.812 110.25 97.382 110.526 96.672 C 110.725 96.182 110.739 96.092 110.739 95.402 L 110.745 94.642 L 110.481 94.102 C 110.062 93.252 109.305 92.622 108.428 92.382 C 107.933 92.262 107.138 92.272 106.705 92.422 Z" style="paint-order: stroke; fill: rgb(255, 255, 255);"/>
      <path d="M 140.156 92.382 C 139.298 92.632 138.534 93.262 138.127 94.102 L 137.864 94.642 L 137.87 95.402 C 137.87 96.092 137.883 96.182 138.083 96.672 C 138.358 97.382 138.634 97.812 139.141 98.312 C 140.011 99.162 140.995 99.392 142.311 99.052 C 143.068 98.852 143.825 98.222 144.189 97.462 C 144.503 96.832 144.578 96.382 144.477 95.662 C 144.246 94.012 143.281 92.812 141.847 92.382 C 141.428 92.272 140.613 92.272 140.156 92.382 Z" style="paint-order: stroke; fill: rgb(255, 255, 255);"/>
    </g>
  </g>
  <g transform="matrix(0.26562499999999994, 0, 0, 0.26562499999999994, 352.6088309378747, 77.58735772352452)">
    <ellipse fill="#FFDE2D" cx="170.666795" cy="81.9198362" rx="85.3332053" ry="81.9198362"/>
    <ellipse fill="#327EFF" cx="85.3332053" cy="81.9198362" rx="85.3332053" ry="81.9198362"/>
    <path d="M170.666795,81.9199642 C170.666795,127.163394 132.461431,163.83916 85.3330773,163.83916 L85.3330773,81.9199642 L170.666795,81.9199642 Z M85.3332053,81.9198362 C85.3332053,36.6767906 123.538185,8.95998209e-05 170.666795,8.95998209e-05 L170.666795,81.9198362 L85.3332053,81.9198362 Z" fill="#FF6446"/>
  </g>
  <text style="fill: rgb(255, 255, 255); font-family: &quot;Kristen ITC&quot;; font-size: 101px; white-space: pre;" x="232.486" y="126.146" transform="matrix(0.9999999999999999, 0, 0, 0.9999999999999999, -3.552713678800501e-15, 0)">+</text>
</svg>
